<?xml version="1.0" encoding="UTF-8" standalone="no"?>
<svg width="660px" height="270px" viewBox="0 0 660 270" version="1.1" xmlns="http://www.w3.org/2000/svg" xmlns:xlink="http://www.w3.org/1999/xlink">
    <!-- Generator: Sketch 3.8.3 (29802) - http://www.bohemiancoding.com/sketch -->
    <title>score-graph</title>
    <desc>Created with Sketch.</desc>
    <defs>
        <rect id="path-1" x="0" y="0" width="530" height="183"></rect>
        <linearGradient x1="19.9642286%" y1="49.2274433%" x2="80.0352037%" y2="49.9968827%" id="linearGradient-3">
            <stop stop-color="#FFCC00" offset="0%"></stop>
            <stop stop-color="#86CE21" offset="0.210993971%"></stop>
            <stop stop-color="#86CE21" offset="99.8856594%"></stop>
            <stop stop-color="#25C4FF" offset="100%"></stop>
        </linearGradient>
        <linearGradient x1="19.8704131%" y1="47.621277%" x2="80.1949441%" y2="47.621277%" id="linearGradient-4">
            <stop stop-color="#FFC200" offset="0%"></stop>
            <stop stop-color="#86CE21" offset="0.107063872%"></stop>
            <stop stop-color="#86CE21" offset="99.8424096%"></stop>
            <stop stop-color="#26C4FF" offset="100%"></stop>
        </linearGradient>
        <path d="M263.100076,88.8420521 C249.399169,91.441561 183.991915,101.762122 107.654674,119.331764 C28.1778813,137.624 5.90025612,158.892396 2.07685981,181.338731 C-1.74653649,203.785067 0.879437784,223.900548 0.879437784,223.900548 L279.839783,223.900552 C279.839783,223.900552 279.320444,211.044655 278.319989,193.256674 L532,260 L532,-5.90518344 C532,-5.90518344 529.396896,-6.47699003 529.113322,-4.81218594 C525.289925,17.6341497 503.0123,38.9025456 423.535507,57.1947811 C344.058714,75.4870166 276.512158,86.027287 266.664872,87.9660138 C266.359091,88.0262158 265.126826,88.3297514 263.100076,88.8420521 Z" id="path-5"></path>
        <mask id="mask-6" maskContentUnits="userSpaceOnUse" maskUnits="objectBoundingBox" x="0" y="0" width="532" height="266" fill="white">
            <use xlink:href="#path-5"></use>
        </mask>
        <rect id="path-7" x="0" y="0" width="530" height="183"></rect>
        <linearGradient x1="19.9110125%" y1="49.3188411%" x2="80.1191092%" y2="49.3188411%" id="linearGradient-9">
            <stop stop-color="#FFCC00" offset="0%"></stop>
            <stop stop-color="#86CE21" offset="0.210993971%"></stop>
            <stop stop-color="#86CE21" offset="99.7107674%"></stop>
            <stop stop-color="#25C4FF" offset="100%"></stop>
        </linearGradient>
        <rect id="path-10" x="87" y="44" width="41" height="22" rx="11"></rect>
        <mask id="mask-11" maskContentUnits="userSpaceOnUse" maskUnits="objectBoundingBox" x="0" y="0" width="41" height="22" fill="white">
            <use xlink:href="#path-10"></use>
        </mask>
        <rect id="path-12" x="87" y="229" width="41" height="22" rx="11"></rect>
        <mask id="mask-13" maskContentUnits="userSpaceOnUse" maskUnits="objectBoundingBox" x="0" y="0" width="41" height="22" fill="white">
            <use xlink:href="#path-12"></use>
        </mask>
        <rect id="path-14" x="87" y="138" width="41" height="22" rx="11"></rect>
        <mask id="mask-15" maskContentUnits="userSpaceOnUse" maskUnits="objectBoundingBox" x="0" y="0" width="41" height="22" fill="white">
            <use xlink:href="#path-14"></use>
        </mask>
    </defs>
    <g id="Page-1" stroke="none" stroke-width="1" fill="none" fill-rule="evenodd">
        <g id="score-graph">
            <g id="Group" transform="translate(107.000000, 51.000000)" fill="#FFFFFF" opacity="0.2">
                <rect id="Rectangle-355-Copy-3" x="1" y="5" width="528" height="1"></rect>
                <rect id="Rectangle-288" x="0" y="0" width="1" height="190"></rect>
                <rect id="Rectangle-288-Copy-2" x="529" y="5" width="1" height="185"></rect>
                <rect id="Rectangle-288-Copy" x="1" y="189" width="528" height="1"></rect>
            </g>
            <g id="plot-line" transform="translate(106.000000, 57.000000)">
                <g id="Path-14">
                    <mask id="mask-2" fill="white">
                        <use xlink:href="#path-1"></use>
                    </mask>
                    <g id="Mask"></g>
                    <g mask="url(#mask-2)" stroke="url(#linearGradient-4)" stroke-width="4" fill="url(#linearGradient-3)" fill-opacity="0">
                        <use mask="url(#mask-6)" xlink:href="#path-5"></use>
                    </g>
                </g>
            </g>
            <g id="plot-fill" transform="translate(106.000000, 57.000000)">
                <g id="Path-14">
                    <mask id="mask-8" fill="white">
                        <use xlink:href="#path-7"></use>
                    </mask>
                    <g id="Mask"></g>
                    <path d="M263.100076,88.8420521 C249.399169,91.441561 183.991915,101.762122 107.654674,119.331764 C28.1778813,137.624 5.90025612,158.892396 2.07685981,181.338731 C-1.74653649,203.785067 0.879437784,223.900548 0.879437784,223.900548 L279.839783,223.900552 C279.839783,223.900552 279.320444,211.044655 278.319989,193.256674 L532,260 L532,-5.90518344 C532,-5.90518344 529.396896,-6.47699003 529.113322,-4.81218594 C525.289925,17.6341497 503.0123,38.9025456 423.535507,57.1947811 C344.058714,75.4870166 276.512158,86.027287 266.664872,87.9660138 C266.359091,88.0262158 265.126826,88.3297514 263.100076,88.8420521 Z" fill-opacity="0.150000006" fill="url(#linearGradient-9)" mask="url(#mask-8)"></path>
                </g>
            </g>
            <use id="Rectangle-359" stroke="#404040" mask="url(#mask-11)" stroke-width="2" fill="#000000" xlink:href="#path-10"></use>
            <path d="M100.28,58.12 C101.74,58.12 102.73,57.19 102.73,55.9 L102.73,55.88 C102.73,54.59 101.73,54.05 100.67,53.92 L102.62,51.92 L102.62,51 L97.99,51 L97.99,52.07 L101.02,52.07 L99.13,54.08 L99.33,54.85 L99.9,54.85 C100.88,54.85 101.51,55.24 101.51,55.93 L101.51,55.95 C101.51,56.59 100.99,57.01 100.3,57.01 C99.52,57.01 98.96,56.68 98.46,56.09 L97.6,56.89 C98.19,57.61 99.06,58.12 100.28,58.12 L100.28,58.12 Z M106.96,58.12 C108.8,58.12 110.02,56.5 110.02,54.5 L110.02,54.48 C110.02,52.48 108.81,50.88 106.98,50.88 C105.14,50.88 103.92,52.5 103.92,54.5 L103.92,54.52 C103.92,56.52 105.12,58.12 106.96,58.12 L106.96,58.12 Z M106.98,57.01 C105.89,57.01 105.19,55.88 105.19,54.5 L105.19,54.48 C105.19,53.09 105.88,51.99 106.96,51.99 C108.04,51.99 108.75,53.12 108.75,54.5 L108.75,54.52 C108.75,55.89 108.07,57.01 106.98,57.01 L106.98,57.01 Z M114.2,58.12 C116.04,58.12 117.26,56.5 117.26,54.5 L117.26,54.48 C117.26,52.48 116.05,50.88 114.22,50.88 C112.38,50.88 111.16,52.5 111.16,54.5 L111.16,54.52 C111.16,56.52 112.36,58.12 114.2,58.12 L114.2,58.12 Z M114.22,57.01 C113.13,57.01 112.43,55.88 112.43,54.5 L112.43,54.48 C112.43,53.09 113.12,51.99 114.2,51.99 C115.28,51.99 115.99,53.12 115.99,54.5 L115.99,54.52 C115.99,55.89 115.31,57.01 114.22,57.01 L114.22,57.01 Z" id="300" fill="#FFFFFF"></path>
            <use id="Rectangle-359-Copy" stroke="#404040" mask="url(#mask-13)" stroke-width="2" fill="#000000" xlink:href="#path-12"></use>
            <path d="M107.49,243.12 C109.33,243.12 110.55,241.5 110.55,239.5 L110.55,239.48 C110.55,237.48 109.34,235.88 107.51,235.88 C105.67,235.88 104.45,237.5 104.45,239.5 L104.45,239.52 C104.45,241.52 105.65,243.12 107.49,243.12 L107.49,243.12 Z M107.51,242.01 C106.42,242.01 105.72,240.88 105.72,239.5 L105.72,239.48 C105.72,238.09 106.41,236.99 107.49,236.99 C108.57,236.99 109.28,238.12 109.28,239.5 L109.28,239.52 C109.28,240.89 108.6,242.01 107.51,242.01 L107.51,242.01 Z" id="0" fill="#FFFFFF"></path>
            <path d="M80.744,29 L83.072,29 L83.072,26.456 L84.104,26.456 L85.796,29 L88.472,29 L86.468,26.072 C87.512,25.628 88.196,24.776 88.196,23.48 L88.196,23.456 C88.196,22.628 87.944,21.992 87.452,21.5 C86.888,20.936 86,20.6 84.716,20.6 L80.744,20.6 L80.744,29 Z M83.072,24.632 L83.072,22.604 L84.608,22.604 C85.376,22.604 85.868,22.94 85.868,23.612 L85.868,23.636 C85.868,24.248 85.4,24.632 84.62,24.632 L83.072,24.632 Z M88.556,29 L90.992,29 L91.592,27.488 L94.844,27.488 L95.444,29 L97.94,29 L94.364,20.54 L92.12,20.54 L88.556,29 Z M92.276,25.676 L93.224,23.3 L94.16,25.676 L92.276,25.676 Z M99.728,29 L102.056,29 L102.056,22.64 L104.576,22.64 L104.576,20.6 L97.22,20.6 L97.22,22.64 L99.728,22.64 L99.728,29 Z M105.656,29 L107.984,29 L107.984,20.6 L105.656,20.6 L105.656,29 Z M109.52,29 L111.824,29 L111.824,24.392 L115.424,29 L117.452,29 L117.452,20.6 L115.148,20.6 L115.148,25.04 L111.692,20.6 L109.52,20.6 L109.52,29 Z M123.224,29.168 C124.76,29.168 125.984,28.604 126.872,27.86 L126.872,24.092 L123.02,24.092 L123.02,25.796 L124.664,25.796 L124.664,26.816 C124.328,27.044 123.896,27.164 123.32,27.164 C121.988,27.164 121.04,26.192 121.04,24.824 L121.04,24.8 C121.04,23.516 121.976,22.508 123.188,22.508 C124.028,22.508 124.616,22.796 125.216,23.3 L126.584,21.644 C125.696,20.876 124.652,20.432 123.176,20.432 C120.584,20.432 118.664,22.352 118.664,24.8 L118.664,24.824 C118.664,27.368 120.608,29.168 123.224,29.168 L123.224,29.168 Z" id="RATING" fill="#FFFFFF" opacity="0.5"></path>
            <use id="Rectangle-359-Copy-2" stroke="#404040" mask="url(#mask-15)" stroke-width="2" fill="#000000" xlink:href="#path-14"></use>
            <path d="M100.565,152 L101.785,152 L101.785,144.95 L100.935,144.95 L99.045,145.55 L99.305,146.55 L100.565,146.2 L100.565,152 Z M105.785,152.12 C107.335,152.12 108.385,151.18 108.385,149.75 L108.385,149.73 C108.385,148.25 107.305,147.53 105.945,147.53 C105.475,147.53 105.165,147.61 104.835,147.73 L104.945,146.09 L108.075,146.09 L108.075,145 L103.885,145 L103.685,148.43 L104.425,148.92 C104.785,148.75 105.215,148.61 105.715,148.61 C106.565,148.61 107.165,149.06 107.165,149.77 L107.165,149.79 C107.165,150.52 106.615,151 105.775,151 C105.125,151 104.535,150.68 103.975,150.16 L103.215,151.05 C103.875,151.69 104.715,152.12 105.785,152.12 L105.785,152.12 Z M112.585,152.12 C114.425,152.12 115.645,150.5 115.645,148.5 L115.645,148.48 C115.645,146.48 114.435,144.88 112.605,144.88 C110.765,144.88 109.545,146.5 109.545,148.5 L109.545,148.52 C109.545,150.52 110.745,152.12 112.585,152.12 L112.585,152.12 Z M112.605,151.01 C111.515,151.01 110.815,149.88 110.815,148.5 L110.815,148.48 C110.815,147.09 111.505,145.99 112.585,145.99 C113.665,145.99 114.375,147.12 114.375,148.5 L114.375,148.52 C114.375,149.89 113.695,151.01 112.605,151.01 L112.605,151.01 Z" id="150" fill="#FFFFFF"></path>
            <path d="M29.57,90 L34.63,90 L34.63,88.92 L31.3,88.92 L32.74,87.72 C33.98,86.71 34.56,86.11 34.56,85.01 L34.56,84.99 C34.56,83.74 33.62,82.9 32.25,82.9 C31,82.9 30.34,83.43 29.67,84.36 L30.55,85.05 C31.08,84.35 31.52,84 32.16,84 C32.8,84 33.29,84.4 33.29,85.09 C33.29,85.72 32.94,86.16 31.98,86.98 L29.57,89.03 L29.57,90 Z M38.82,90.12 C40.66,90.12 41.88,88.5 41.88,86.5 L41.88,86.48 C41.88,84.48 40.67,82.88 38.84,82.88 C37,82.88 35.78,84.5 35.78,86.5 L35.78,86.52 C35.78,88.52 36.98,90.12 38.82,90.12 L38.82,90.12 Z M38.84,89.01 C37.75,89.01 37.05,87.88 37.05,86.5 L37.05,86.48 C37.05,85.09 37.74,83.99 38.82,83.99 C39.9,83.99 40.61,85.12 40.61,86.5 L40.61,86.52 C40.61,87.89 39.93,89.01 38.84,89.01 L38.84,89.01 Z M44.18,90 L45.4,90 L45.4,82.95 L44.55,82.95 L42.66,83.55 L42.92,84.55 L44.18,84.2 L44.18,90 Z M46.92,87.53 L49.88,87.53 L49.88,86.34 L46.92,86.34 L46.92,87.53 Z M53.45,90.12 C54.91,90.12 55.9,89.19 55.9,87.9 L55.9,87.88 C55.9,86.59 54.9,86.05 53.84,85.92 L55.79,83.92 L55.79,83 L51.16,83 L51.16,84.07 L54.19,84.07 L52.3,86.08 L52.5,86.85 L53.07,86.85 C54.05,86.85 54.68,87.24 54.68,87.93 L54.68,87.95 C54.68,88.59 54.16,89.01 53.47,89.01 C52.69,89.01 52.13,88.68 51.63,88.09 L50.77,88.89 C51.36,89.61 52.23,90.12 53.45,90.12 L53.45,90.12 Z M60.13,90.12 C61.97,90.12 63.19,88.5 63.19,86.5 L63.19,86.48 C63.19,84.48 61.98,82.88 60.15,82.88 C58.31,82.88 57.09,84.5 57.09,86.5 L57.09,86.52 C57.09,88.52 58.29,90.12 60.13,90.12 L60.13,90.12 Z M60.15,89.01 C59.06,89.01 58.36,87.88 58.36,86.5 L58.36,86.48 C58.36,85.09 59.05,83.99 60.13,83.99 C61.21,83.99 61.92,85.12 61.92,86.5 L61.92,86.52 C61.92,87.89 61.24,89.01 60.15,89.01 L60.15,89.01 Z M67.37,90.12 C69.21,90.12 70.43,88.5 70.43,86.5 L70.43,86.48 C70.43,84.48 69.22,82.88 67.39,82.88 C65.55,82.88 64.33,84.5 64.33,86.5 L64.33,86.52 C64.33,88.52 65.53,90.12 67.37,90.12 L67.37,90.12 Z M67.39,89.01 C66.3,89.01 65.6,87.88 65.6,86.5 L65.6,86.48 C65.6,85.09 66.29,83.99 67.37,83.99 C68.45,83.99 69.16,85.12 69.16,86.5 L69.16,86.52 C69.16,87.89 68.48,89.01 67.39,89.01 L67.39,89.01 Z" id="201-300" fill="#FFFFFF"></path>
            <path d="M32.98,156 L34.2,156 L34.2,148.95 L33.35,148.95 L31.46,149.55 L31.72,150.55 L32.98,150.2 L32.98,156 Z M38.77,156.12 C40.61,156.12 41.83,154.5 41.83,152.5 L41.83,152.48 C41.83,150.48 40.62,148.88 38.79,148.88 C36.95,148.88 35.73,150.5 35.73,152.5 L35.73,152.52 C35.73,154.52 36.93,156.12 38.77,156.12 L38.77,156.12 Z M38.79,155.01 C37.7,155.01 37,153.88 37,152.5 L37,152.48 C37,151.09 37.69,149.99 38.77,149.99 C39.85,149.99 40.56,151.12 40.56,152.5 L40.56,152.52 C40.56,153.89 39.88,155.01 38.79,155.01 L38.79,155.01 Z M44.13,156 L45.35,156 L45.35,148.95 L44.5,148.95 L42.61,149.55 L42.87,150.55 L44.13,150.2 L44.13,156 Z M46.87,153.53 L49.83,153.53 L49.83,152.34 L46.87,152.34 L46.87,153.53 Z M50.88,156 L55.94,156 L55.94,154.92 L52.61,154.92 L54.05,153.72 C55.29,152.71 55.87,152.11 55.87,151.01 L55.87,150.99 C55.87,149.74 54.93,148.9 53.56,148.9 C52.31,148.9 51.65,149.43 50.98,150.36 L51.86,151.05 C52.39,150.35 52.83,150 53.47,150 C54.11,150 54.6,150.4 54.6,151.09 C54.6,151.72 54.25,152.16 53.29,152.98 L50.88,155.03 L50.88,156 Z M60.13,156.12 C61.97,156.12 63.19,154.5 63.19,152.5 L63.19,152.48 C63.19,150.48 61.98,148.88 60.15,148.88 C58.31,148.88 57.09,150.5 57.09,152.5 L57.09,152.52 C57.09,154.52 58.29,156.12 60.13,156.12 L60.13,156.12 Z M60.15,155.01 C59.06,155.01 58.36,153.88 58.36,152.5 L58.36,152.48 C58.36,151.09 59.05,149.99 60.13,149.99 C61.21,149.99 61.92,151.12 61.92,152.5 L61.92,152.52 C61.92,153.89 61.24,155.01 60.15,155.01 L60.15,155.01 Z M67.37,156.12 C69.21,156.12 70.43,154.5 70.43,152.5 L70.43,152.48 C70.43,150.48 69.22,148.88 67.39,148.88 C65.55,148.88 64.33,150.5 64.33,152.5 L64.33,152.52 C64.33,154.52 65.53,156.12 67.37,156.12 L67.37,156.12 Z M67.39,155.01 C66.3,155.01 65.6,153.88 65.6,152.5 L65.6,152.48 C65.6,151.09 66.29,149.99 67.37,149.99 C68.45,149.99 69.16,151.12 69.16,152.5 L69.16,152.52 C69.16,153.89 68.48,155.01 67.39,155.01 L67.39,155.01 Z" id="101-200" fill="#FFFFFF"></path>
            <path d="M45.15,223.12 C46.99,223.12 48.21,221.5 48.21,219.5 L48.21,219.48 C48.21,217.48 47,215.88 45.17,215.88 C43.33,215.88 42.11,217.5 42.11,219.5 L42.11,219.52 C42.11,221.52 43.31,223.12 45.15,223.12 L45.15,223.12 Z M45.17,222.01 C44.08,222.01 43.38,220.88 43.38,219.5 L43.38,219.48 C43.38,218.09 44.07,216.99 45.15,216.99 C46.23,216.99 46.94,218.12 46.94,219.5 L46.94,219.52 C46.94,220.89 46.26,222.01 45.17,222.01 L45.17,222.01 Z M49.34,220.53 L52.3,220.53 L52.3,219.34 L49.34,219.34 L49.34,220.53 Z M54.34,223 L55.56,223 L55.56,215.95 L54.71,215.95 L52.82,216.55 L53.08,217.55 L54.34,217.2 L54.34,223 Z M60.13,223.12 C61.97,223.12 63.19,221.5 63.19,219.5 L63.19,219.48 C63.19,217.48 61.98,215.88 60.15,215.88 C58.31,215.88 57.09,217.5 57.09,219.5 L57.09,219.52 C57.09,221.52 58.29,223.12 60.13,223.12 L60.13,223.12 Z M60.15,222.01 C59.06,222.01 58.36,220.88 58.36,219.5 L58.36,219.48 C58.36,218.09 59.05,216.99 60.13,216.99 C61.21,216.99 61.92,218.12 61.92,219.5 L61.92,219.52 C61.92,220.89 61.24,222.01 60.15,222.01 L60.15,222.01 Z M67.37,223.12 C69.21,223.12 70.43,221.5 70.43,219.5 L70.43,219.48 C70.43,217.48 69.22,215.88 67.39,215.88 C65.55,215.88 64.33,217.5 64.33,219.5 L64.33,219.52 C64.33,221.52 65.53,223.12 67.37,223.12 L67.37,223.12 Z M67.39,222.01 C66.3,222.01 65.6,220.88 65.6,219.5 L65.6,219.48 C65.6,218.09 66.29,216.99 67.37,216.99 C68.45,216.99 69.16,218.12 69.16,219.5 L69.16,219.52 C69.16,220.89 68.48,222.01 67.39,222.01 L67.39,222.01 Z" id="0-100" fill="#FFFFFF"></path>
            <path d="M31.508,77 L37.904,77 L37.904,75.356 L33.344,75.356 L33.344,73.592 L37.304,73.592 L37.304,71.948 L33.344,71.948 L33.344,70.244 L37.844,70.244 L37.844,68.6 L31.508,68.6 L31.508,77 Z M43.316,77 L45.272,77 L43.004,73.712 L45.176,70.568 L43.268,70.568 L42.056,72.452 L40.856,70.568 L38.9,70.568 L41.072,73.736 L38.816,77 L40.724,77 L42.02,74.996 L43.316,77 Z M46.364,78.92 L48.188,78.92 L48.188,76.16 C48.62,76.676 49.22,77.12 50.192,77.12 C51.716,77.12 53.12,75.944 53.12,73.796 L53.12,73.772 C53.12,71.624 51.692,70.448 50.192,70.448 C49.244,70.448 48.632,70.892 48.188,71.492 L48.188,70.568 L46.364,70.568 L46.364,78.92 Z M49.724,75.572 C48.872,75.572 48.164,74.864 48.164,73.796 L48.164,73.772 C48.164,72.704 48.872,71.996 49.724,71.996 C50.576,71.996 51.296,72.704 51.296,73.772 L51.296,73.796 C51.296,74.876 50.576,75.572 49.724,75.572 L49.724,75.572 Z M57.512,77.144 C58.676,77.144 59.54,76.688 60.14,75.944 L59.096,75.02 C58.592,75.488 58.148,75.68 57.536,75.68 C56.72,75.68 56.144,75.248 55.964,74.42 L60.44,74.42 C60.452,74.252 60.464,74.084 60.464,73.94 C60.464,72.116 59.48,70.448 57.332,70.448 C55.46,70.448 54.152,71.96 54.152,73.796 L54.152,73.82 C54.152,75.788 55.58,77.144 57.512,77.144 L57.512,77.144 Z M55.94,73.28 C56.084,72.452 56.576,71.912 57.332,71.912 C58.1,71.912 58.58,72.464 58.688,73.28 L55.94,73.28 Z M61.82,77 L63.644,77 L63.644,74.624 C63.644,73.088 64.388,72.356 65.6,72.356 L65.696,72.356 L65.696,70.448 C64.616,70.4 64.016,70.976 63.644,71.864 L63.644,70.568 L61.82,70.568 L61.82,77 Z M69.008,77.108 C69.62,77.108 70.064,76.964 70.448,76.736 L70.448,75.272 C70.184,75.416 69.884,75.5 69.548,75.5 C69.14,75.5 68.96,75.296 68.96,74.876 L68.96,72.128 L70.472,72.128 L70.472,70.568 L68.96,70.568 L68.96,68.924 L67.136,68.924 L67.136,70.568 L66.368,70.568 L66.368,72.128 L67.136,72.128 L67.136,75.176 C67.136,76.664 67.892,77.108 69.008,77.108 L69.008,77.108 Z" id="Expert" fill="#26C1FB"></path>
            <path d="M12.692,143 L14.54,143 L14.54,140.48 L15.944,140.48 C17.828,140.48 19.34,139.472 19.34,137.528 L19.34,137.504 C19.34,135.788 18.128,134.6 16.124,134.6 L12.692,134.6 L12.692,143 Z M14.54,138.836 L14.54,136.268 L15.968,136.268 C16.892,136.268 17.468,136.712 17.468,137.54 L17.468,137.564 C17.468,138.284 16.928,138.836 16.004,138.836 L14.54,138.836 Z M20.516,143 L22.34,143 L22.34,140.624 C22.34,139.088 23.084,138.356 24.296,138.356 L24.392,138.356 L24.392,136.448 C23.312,136.4 22.712,136.976 22.34,137.864 L22.34,136.568 L20.516,136.568 L20.516,143 Z M28.508,143.144 C30.512,143.144 32,141.644 32,139.796 L32,139.772 C32,137.924 30.524,136.448 28.532,136.448 C26.528,136.448 25.04,137.948 25.04,139.796 L25.04,139.82 C25.04,141.668 26.516,143.144 28.508,143.144 L28.508,143.144 Z M28.532,141.572 C27.524,141.572 26.84,140.744 26.84,139.796 L26.84,139.772 C26.84,138.824 27.464,138.02 28.508,138.02 C29.516,138.02 30.2,138.848 30.2,139.796 L30.2,139.82 C30.2,140.768 29.576,141.572 28.532,141.572 L28.532,141.572 Z M33.632,143 L35.456,143 L35.456,138.128 L36.908,138.128 L36.908,136.64 L35.432,136.64 L35.432,136.388 C35.432,135.908 35.672,135.692 36.092,135.692 C36.404,135.692 36.656,135.752 36.92,135.848 L36.92,134.336 C36.584,134.228 36.2,134.156 35.624,134.156 C34.976,134.156 34.484,134.324 34.148,134.66 C33.812,134.996 33.632,135.512 33.632,136.22 L33.632,136.628 L32.876,136.628 L32.876,138.128 L33.632,138.128 L33.632,143 Z M37.988,143 L39.812,143 L39.812,136.568 L37.988,136.568 L37.988,143 Z M37.94,135.86 L39.86,135.86 L39.86,134.24 L37.94,134.24 L37.94,135.86 Z M44.564,143.144 C45.848,143.144 46.568,142.652 47.192,141.968 L46.124,140.888 C45.68,141.308 45.26,141.572 44.648,141.572 C43.652,141.572 43.016,140.78 43.016,139.796 L43.016,139.772 C43.016,138.824 43.664,138.02 44.576,138.02 C45.224,138.02 45.632,138.296 46.04,138.728 L47.156,137.528 C46.556,136.856 45.8,136.448 44.588,136.448 C42.62,136.448 41.216,137.96 41.216,139.796 L41.216,139.82 C41.216,141.656 42.632,143.144 44.564,143.144 L44.564,143.144 Z M48.416,135.86 L50.336,135.86 L50.336,134.24 L48.416,134.24 L48.416,135.86 Z M48.464,143 L50.288,143 L50.288,136.568 L48.464,136.568 L48.464,143 Z M55.052,143.144 C56.216,143.144 57.08,142.688 57.68,141.944 L56.636,141.02 C56.132,141.488 55.688,141.68 55.076,141.68 C54.26,141.68 53.684,141.248 53.504,140.42 L57.98,140.42 C57.992,140.252 58.004,140.084 58.004,139.94 C58.004,138.116 57.02,136.448 54.872,136.448 C53,136.448 51.692,137.96 51.692,139.796 L51.692,139.82 C51.692,141.788 53.12,143.144 55.052,143.144 L55.052,143.144 Z M53.48,139.28 C53.624,138.452 54.116,137.912 54.872,137.912 C55.64,137.912 56.12,138.464 56.228,139.28 L53.48,139.28 Z M59.36,143 L61.184,143 L61.184,139.412 C61.184,138.548 61.628,138.104 62.324,138.104 C63.02,138.104 63.428,138.548 63.428,139.412 L63.428,143 L65.252,143 L65.252,138.836 C65.252,137.36 64.448,136.448 63.068,136.448 C62.144,136.448 61.604,136.94 61.184,137.48 L61.184,136.568 L59.36,136.568 L59.36,143 Z M69.008,143.108 C69.62,143.108 70.064,142.964 70.448,142.736 L70.448,141.272 C70.184,141.416 69.884,141.5 69.548,141.5 C69.14,141.5 68.96,141.296 68.96,140.876 L68.96,138.128 L70.472,138.128 L70.472,136.568 L68.96,136.568 L68.96,134.924 L67.136,134.924 L67.136,136.568 L66.368,136.568 L66.368,138.128 L67.136,138.128 L67.136,141.176 C67.136,142.664 67.892,143.108 69.008,143.108 L69.008,143.108 Z" id="Proficient" fill="#86CE21"></path>
            <path d="M30.068,208 L31.892,208 L31.892,202.66 L35.96,208 L37.532,208 L37.532,199.6 L35.708,199.6 L35.708,204.772 L31.772,199.6 L30.068,199.6 L30.068,208 Z M42.512,208.144 C44.516,208.144 46.004,206.644 46.004,204.796 L46.004,204.772 C46.004,202.924 44.528,201.448 42.536,201.448 C40.532,201.448 39.044,202.948 39.044,204.796 L39.044,204.82 C39.044,206.668 40.52,208.144 42.512,208.144 L42.512,208.144 Z M42.536,206.572 C41.528,206.572 40.844,205.744 40.844,204.796 L40.844,204.772 C40.844,203.824 41.468,203.02 42.512,203.02 C43.52,203.02 44.204,203.848 44.204,204.796 L44.204,204.82 C44.204,205.768 43.58,206.572 42.536,206.572 L42.536,206.572 Z M48.92,208.048 L50.576,208.048 L53.108,201.568 L51.212,201.568 L49.76,205.876 L48.32,201.568 L46.388,201.568 L48.92,208.048 Z M54.2,200.86 L56.12,200.86 L56.12,199.24 L54.2,199.24 L54.2,200.86 Z M54.248,208 L56.072,208 L56.072,201.568 L54.248,201.568 L54.248,208 Z M60.824,208.144 C62.108,208.144 62.828,207.652 63.452,206.968 L62.384,205.888 C61.94,206.308 61.52,206.572 60.908,206.572 C59.912,206.572 59.276,205.78 59.276,204.796 L59.276,204.772 C59.276,203.824 59.924,203.02 60.836,203.02 C61.484,203.02 61.892,203.296 62.3,203.728 L63.416,202.528 C62.816,201.856 62.06,201.448 60.848,201.448 C58.88,201.448 57.476,202.96 57.476,204.796 L57.476,204.82 C57.476,206.656 58.892,208.144 60.824,208.144 L60.824,208.144 Z M67.508,208.144 C68.672,208.144 69.536,207.688 70.136,206.944 L69.092,206.02 C68.588,206.488 68.144,206.68 67.532,206.68 C66.716,206.68 66.14,206.248 65.96,205.42 L70.436,205.42 C70.448,205.252 70.46,205.084 70.46,204.94 C70.46,203.116 69.476,201.448 67.328,201.448 C65.456,201.448 64.148,202.96 64.148,204.796 L64.148,204.82 C64.148,206.788 65.576,208.144 67.508,208.144 L67.508,208.144 Z M65.936,204.28 C66.08,203.452 66.572,202.912 67.328,202.912 C68.096,202.912 68.576,203.464 68.684,204.28 L65.936,204.28 Z" id="Novice" fill="#FFC200"></path>
            <path d="M82,51.9989841 C82,51.4472604 82.4438648,51 83,51 L83,51 C83.5522847,51 84,51.4386366 84,52.0055151 L84,99.1182292 L84,113 L82,113 L82,51.9989841 Z" id="Rectangle-114" fill="#26C1E1"></path>
            <rect id="Rectangle-114-Copy-2" fill="#FFC200" x="82" y="179" width="2" height="62"></rect>
            <polygon id="Rectangle-114-Copy" fill="#86CE21" points="82 114 84 114 84 178 82 178"></polygon>
        </g>
    </g>
</svg>